<svg xmlns="http://www.w3.org/2000/svg" xmlns:xlink="http://www.w3.org/1999/xlink" width="1024" zoomAndPan="magnify" viewBox="0 0 768 767.999994" height="1024" preserveAspectRatio="xMidYMid meet" version="1.0"><defs><clipPath id="2a6aef1fce"><path d="M 25.992188 36.152344 L 740.863281 36.152344 L 740.863281 731.847656 L 25.992188 731.847656 Z M 25.992188 36.152344 " clip-rule="nonzero"/></clipPath><clipPath id="fadeadcb7e"><path d="M 59.785156 36.152344 L 708.214844 36.152344 C 726.878906 36.152344 742.007812 51.28125 742.007812 69.945312 L 742.007812 698.054688 C 742.007812 716.71875 726.878906 731.847656 708.214844 731.847656 L 59.785156 731.847656 C 41.121094 731.847656 25.992188 716.71875 25.992188 698.054688 L 25.992188 69.945312 C 25.992188 51.28125 41.121094 36.152344 59.785156 36.152344 Z M 59.785156 36.152344 " clip-rule="nonzero"/></clipPath><clipPath id="96c06df895"><path d="M 59.785156 36.152344 L 708.214844 36.152344 C 726.878906 36.152344 742.007812 51.28125 742.007812 69.945312 L 742.007812 698.054688 C 742.007812 716.71875 726.878906 731.847656 708.214844 731.847656 L 59.785156 731.847656 C 41.121094 731.847656 25.992188 716.71875 25.992188 698.054688 L 25.992188 69.945312 C 25.992188 51.28125 41.121094 36.152344 59.785156 36.152344 Z M 59.785156 36.152344 " clip-rule="nonzero"/></clipPath></defs><rect x="-76.8" width="921.6" fill="#ffffff" y="-76.799999" height="921.599993" fill-opacity="1"/><rect x="-76.8" width="921.6" fill="#ffffff" y="-76.799999" height="921.599993" fill-opacity="1"/><g clip-path="url(#2a6aef1fce)"><g clip-path="url(#fadeadcb7e)"><g clip-path="url(#96c06df895)"><path fill="#0a340d" d="M 25.992188 36.152344 L 740.707031 36.152344 L 740.707031 731.847656 L 25.992188 731.847656 Z M 25.992188 36.152344 " fill-opacity="1" fill-rule="nonzero"/></g></g></g><path fill="#f1ecd9" d="M 243.605469 582.511719 L 243.605469 469.886719 L 328.191406 469.886719 L 328.191406 516.625 L 327.0625 516.625 C 324.433594 506.492188 321.148438 498.460938 317.207031 492.527344 C 313.265625 486.597656 308.570312 482.222656 303.125 479.40625 C 297.6875 476.589844 291.359375 474.847656 284.152344 474.167969 L 284.152344 519.894531 C 285.65625 519.445312 287.230469 518.238281 288.878906 516.289062 C 290.53125 514.335938 292.070312 511.933594 293.496094 509.078125 C 294.921875 506.226562 296.183594 503.167969 297.269531 499.902344 C 298.363281 496.636719 299.097656 493.421875 299.472656 490.273438 L 300.597656 490.273438 L 300.597656 551.65625 L 299.472656 551.65625 C 299.097656 548.5 298.363281 545.289062 297.269531 542.023438 C 296.183594 538.757812 294.921875 535.703125 293.496094 532.847656 C 292.070312 529.996094 290.53125 527.589844 288.878906 525.640625 C 287.230469 523.6875 285.65625 522.484375 284.152344 522.03125 L 284.152344 578.121094 C 291.511719 577.070312 298.175781 574.40625 304.144531 570.128906 C 310.109375 565.84375 315.082031 560.007812 319.0625 552.617188 C 323.046875 545.21875 325.710938 536.414062 327.0625 526.199219 L 328.191406 526.199219 L 328.191406 582.511719 Z M 243.605469 582.511719 " fill-opacity="1" fill-rule="nonzero"/><path fill="#f1ecd9" d="M 333.253906 526.199219 C 333.253906 517.789062 334.511719 510.019531 337.023438 502.886719 C 339.539062 495.75 343.144531 489.558594 347.839844 484.304688 C 352.53125 479.050781 358.125 474.960938 364.621094 472.03125 C 371.117188 469.101562 378.34375 467.632812 386.300781 467.632812 C 393.507812 467.632812 399.738281 468.234375 404.992188 469.441406 C 410.25 470.640625 414.585938 472.046875 418 473.664062 C 421.417969 475.277344 423.953125 476.683594 425.605469 477.886719 C 427.257812 479.085938 428.085938 479.6875 428.085938 479.6875 L 419.75 503.671875 C 417.722656 500.445312 415.226562 497.03125 412.261719 493.433594 C 409.296875 489.828125 405.953125 486.429688 402.238281 483.238281 C 398.519531 480.046875 394.578125 477.4375 390.40625 475.40625 C 386.242188 473.382812 381.980469 472.367188 377.628906 472.367188 C 373.121094 472.367188 369.332031 473.398438 366.253906 475.464844 C 363.175781 477.527344 360.867188 480.214844 359.328125 483.519531 C 357.789062 486.820312 357.023438 490.421875 357.023438 494.328125 C 357.023438 502.285156 358.089844 509.679688 360.230469 516.511719 C 362.367188 523.34375 365.257812 529.445312 368.902344 534.816406 C 372.542969 540.1875 376.632812 544.789062 381.175781 548.617188 C 385.71875 552.441406 390.390625 555.351562 395.199219 557.34375 C 400.003906 559.332031 404.585938 560.328125 408.941406 560.328125 C 411.492188 560.328125 413.984375 559.972656 416.421875 559.253906 C 418.863281 558.542969 420.894531 557.4375 422.511719 555.9375 C 424.125 554.433594 424.933594 552.441406 424.933594 549.960938 C 424.933594 546.285156 423.785156 542.816406 421.496094 539.550781 C 419.207031 536.285156 416.183594 533.222656 412.429688 530.367188 C 408.675781 527.515625 404.617188 524.886719 400.261719 522.488281 C 395.910156 520.082031 391.59375 517.941406 387.308594 516.0625 C 383.03125 514.1875 379.222656 512.589844 375.878906 511.28125 C 372.539062 509.964844 370.082031 508.96875 368.511719 508.296875 L 368.511719 507.167969 L 428.308594 507.167969 L 428.308594 561.792969 C 428.308594 561.792969 427.859375 562.5625 426.957031 564.105469 C 426.054688 565.640625 424.628906 567.554688 422.679688 569.847656 C 420.726562 572.136719 418.113281 574.421875 414.847656 576.710938 C 411.582031 579 407.601562 580.914062 402.910156 582.457031 C 398.222656 583.996094 392.6875 584.769531 386.300781 584.769531 C 378.34375 584.769531 371.117188 583.304688 364.621094 580.375 C 358.125 577.445312 352.53125 573.351562 347.839844 568.09375 C 343.144531 562.84375 339.539062 556.652344 337.023438 549.519531 C 334.511719 542.382812 333.253906 534.613281 333.253906 526.199219 Z M 333.253906 526.199219 " fill-opacity="1" fill-rule="nonzero"/><path fill="#f1ecd9" d="M 435.0625 508.0625 C 435.0625 504.835938 435.417969 501.480469 436.132812 497.992188 C 436.847656 494.5 438.011719 491.082031 439.621094 487.742188 C 441.238281 484.398438 443.453125 481.375 446.269531 478.671875 C 449.085938 475.96875 452.558594 473.828125 456.6875 472.253906 C 460.816406 470.675781 465.738281 469.886719 471.445312 469.886719 L 524.484375 469.886719 L 524.484375 582.511719 L 483.941406 582.511719 L 483.941406 526.199219 L 455.566406 526.199219 C 457.667969 530.253906 459.878906 534.328125 462.207031 538.421875 C 464.535156 542.515625 466.714844 546.550781 468.742188 550.527344 C 470.769531 554.507812 472.417969 558.410156 473.695312 562.238281 C 474.96875 566.070312 475.605469 569.75 475.605469 573.28125 C 475.605469 574.855469 475.472656 576.410156 475.214844 577.953125 C 474.953125 579.488281 474.519531 581.007812 473.917969 582.511719 L 435.0625 582.511719 Z M 446.773438 498.609375 C 446.773438 502.289062 447.410156 506.117188 448.6875 510.097656 C 449.964844 514.074219 451.617188 518.128906 453.644531 522.253906 L 483.941406 522.253906 L 483.941406 474.617188 C 481.3125 474.617188 478.910156 474.617188 476.734375 474.617188 C 474.558594 474.617188 471.628906 474.617188 467.949219 474.617188 C 463.441406 474.617188 459.78125 475.5 456.964844 477.265625 C 454.15625 479.03125 452.015625 481.207031 450.550781 483.800781 C 449.089844 486.386719 448.09375 489.03125 447.566406 491.734375 C 447.039062 494.441406 446.773438 496.730469 446.773438 498.609375 Z M 446.773438 498.609375 " fill-opacity="1" fill-rule="nonzero"/><path fill="#f1ecd9" d="M 139.601562 721.816406 L 139.601562 609.191406 L 180.148438 609.191406 L 180.148438 661.558594 L 195.578125 661.558594 L 195.578125 609.191406 L 236.125 609.191406 L 236.125 721.816406 L 195.578125 721.816406 L 195.578125 665.503906 L 180.148438 665.503906 L 180.148438 721.816406 Z M 139.601562 721.816406 " fill-opacity="1" fill-rule="nonzero"/><path fill="#f1ecd9" d="M 241.1875 665.503906 C 241.1875 656.71875 242.503906 648.742188 245.132812 641.574219 C 247.761719 634.402344 251.4375 628.226562 256.164062 623.046875 C 260.894531 617.863281 266.507812 613.882812 273.003906 611.101562 C 279.5 608.324219 286.578125 606.933594 294.238281 606.933594 C 301.894531 606.933594 308.96875 608.34375 315.460938 611.160156 C 321.957031 613.972656 327.570312 617.957031 332.300781 623.101562 C 337.03125 628.246094 340.710938 634.402344 343.339844 641.574219 C 345.96875 648.742188 347.285156 656.71875 347.285156 665.503906 C 347.285156 674.285156 345.96875 682.265625 343.339844 689.4375 C 340.710938 696.605469 337.03125 702.765625 332.300781 707.910156 C 327.570312 713.050781 321.957031 717.03125 315.460938 719.847656 C 308.96875 722.664062 301.894531 724.070312 294.238281 724.070312 C 286.578125 724.070312 279.5 722.679688 273.003906 719.902344 C 266.507812 717.125 260.894531 713.148438 256.164062 707.964844 C 251.4375 702.78125 247.761719 696.605469 245.132812 689.4375 C 242.503906 682.265625 241.1875 674.285156 241.1875 665.503906 Z M 281.507812 613.023438 C 278.804688 613.695312 276.925781 616.492188 275.875 621.414062 C 274.824219 626.332031 274.65625 632.863281 275.371094 641.007812 C 276.085938 649.152344 277.679688 658.515625 280.15625 669.101562 C 282.636719 679.613281 285.472656 688.683594 288.660156 696.300781 C 291.847656 703.925781 295.078125 709.667969 298.339844 713.535156 C 301.609375 717.402344 304.558594 719 307.1875 718.328125 C 309.894531 717.574219 311.65625 714.742188 312.476562 709.824219 C 313.304688 704.90625 313.265625 698.355469 312.363281 690.175781 C 311.46875 681.988281 309.78125 672.675781 307.300781 662.238281 C 304.894531 651.652344 302.191406 642.566406 299.1875 634.984375 C 296.183594 627.398438 293.164062 621.675781 290.125 617.804688 C 287.085938 613.941406 284.210938 612.347656 281.507812 613.023438 Z M 281.507812 613.023438 " fill-opacity="1" fill-rule="nonzero"/><path fill="#f1ecd9" d="M 352.34375 609.191406 L 389.175781 609.191406 C 389.773438 610.613281 390.203125 612.117188 390.464844 613.695312 C 390.730469 615.273438 390.863281 616.851562 390.863281 618.421875 C 390.863281 622.179688 390.148438 626.085938 388.71875 630.140625 C 387.296875 634.195312 385.496094 638.347656 383.320312 642.589844 C 381.144531 646.832031 378.835938 651.109375 376.390625 655.429688 C 373.949219 659.746094 371.640625 664.058594 369.464844 668.375 C 367.289062 672.691406 365.503906 676.914062 364.113281 681.046875 C 362.722656 685.175781 362.03125 689.191406 362.03125 693.09375 C 362.03125 694.972656 362.347656 697.171875 362.984375 699.6875 C 363.625 702.199219 364.675781 704.660156 366.136719 707.0625 C 367.601562 709.460938 369.648438 711.453125 372.28125 713.03125 C 374.910156 714.609375 378.175781 715.398438 382.082031 715.398438 C 385.535156 715.398438 388.707031 715.097656 391.601562 714.496094 C 394.492188 713.890625 397.023438 712.878906 399.199219 711.453125 L 399.199219 609.191406 L 439.746094 609.191406 L 439.746094 721.816406 L 388.160156 721.816406 C 382.601562 721.816406 377.796875 721.027344 373.746094 719.453125 C 369.691406 717.875 366.292969 715.734375 363.550781 713.03125 C 360.808594 710.328125 358.613281 707.304688 356.960938 703.964844 C 355.3125 700.621094 354.128906 697.207031 353.417969 693.71875 C 352.699219 690.226562 352.34375 686.867188 352.34375 683.636719 Z M 352.34375 609.191406 " fill-opacity="1" fill-rule="nonzero"/><path fill="#f1ecd9" d="M 444.808594 685.214844 C 444.808594 681.683594 445.574219 678.304688 447.113281 675.078125 C 448.652344 671.847656 450.753906 668.957031 453.421875 666.40625 C 456.089844 663.851562 459.148438 661.9375 462.597656 660.664062 C 457.800781 656.683594 453.875 652.164062 450.832031 647.09375 C 447.792969 642.023438 446.273438 636.21875 446.273438 629.6875 C 446.273438 627.4375 446.648438 625.109375 447.398438 622.710938 C 448.152344 620.304688 449.183594 618.070312 450.496094 616.007812 C 451.808594 613.941406 453.273438 612.292969 454.886719 611.054688 C 456.503906 609.8125 458.210938 609.191406 460.015625 609.191406 L 533.328125 609.191406 C 534.003906 610.390625 534.53125 611.613281 534.902344 612.855469 C 535.28125 614.09375 535.472656 615.460938 535.472656 616.957031 C 535.472656 619.8125 534.832031 622.367188 533.550781 624.621094 C 532.277344 626.875 530.625 628.769531 528.597656 630.308594 C 526.570312 631.847656 524.449219 633.027344 522.230469 633.855469 C 520.015625 634.683594 517.976562 635.09375 516.101562 635.09375 C 511.894531 635.09375 507.761719 634.382812 503.710938 632.957031 C 499.65625 631.53125 495.734375 629.765625 491.945312 627.664062 C 488.152344 625.5625 484.472656 623.476562 480.902344 621.414062 C 477.335938 619.347656 473.898438 617.597656 470.597656 616.175781 C 467.296875 614.746094 464.144531 614.03125 461.136719 614.03125 C 460.386719 614.03125 459.769531 614.445312 459.28125 615.269531 C 458.792969 616.097656 458.550781 616.8125 458.550781 617.414062 C 458.550781 620.039062 459.675781 622.347656 461.925781 624.34375 C 464.175781 626.332031 467.21875 628.132812 471.046875 629.75 C 474.875 631.363281 479.15625 632.957031 483.886719 634.535156 C 488.617188 636.109375 493.535156 637.851562 498.640625 639.765625 C 503.746094 641.683594 508.667969 643.917969 513.398438 646.46875 C 518.128906 649.019531 522.410156 652.042969 526.238281 655.535156 C 530.066406 659.027344 533.109375 663.160156 535.359375 667.925781 C 537.609375 672.695312 538.734375 678.304688 538.734375 684.757812 C 538.734375 692.117188 537.027344 698.765625 533.609375 704.695312 C 530.195312 710.625 525.050781 715.320312 518.183594 718.773438 C 511.3125 722.222656 502.625 723.992188 492.113281 724.070312 C 486.179688 724.070312 480.398438 723.261719 474.765625 721.648438 C 469.136719 720.03125 464.066406 717.589844 459.558594 714.328125 C 455.058594 711.058594 451.472656 706.984375 448.808594 702.101562 C 446.140625 697.222656 444.808594 691.59375 444.808594 685.214844 Z M 524.207031 705.140625 C 524.207031 701.992188 522.949219 699.066406 520.429688 696.367188 C 517.917969 693.664062 514.539062 691.070312 510.296875 688.589844 C 506.054688 686.109375 501.382812 683.578125 496.28125 680.992188 C 491.175781 678.398438 485.976562 675.660156 480.679688 672.765625 C 475.386719 669.875 470.414062 666.667969 465.757812 663.132812 C 465.832031 665.613281 466.507812 668.582031 467.785156 672.039062 C 469.058594 675.492188 470.800781 679.128906 473.015625 682.957031 C 475.234375 686.789062 477.824219 690.523438 480.792969 694.167969 C 483.753906 697.808594 487.003906 701.132812 490.535156 704.132812 C 494.066406 707.136719 497.742188 709.523438 501.566406 711.285156 C 505.394531 713.050781 509.304688 713.933594 513.289062 713.933594 C 516.585938 713.933594 519.234375 713.050781 521.222656 711.285156 C 523.210938 709.523438 524.207031 707.472656 524.207031 705.140625 Z M 524.207031 705.140625 " fill-opacity="1" fill-rule="nonzero"/><path fill="#f1ecd9" d="M 543.800781 721.816406 L 543.800781 609.191406 L 628.382812 609.191406 L 628.382812 655.925781 L 627.257812 655.925781 C 624.625 645.792969 621.339844 637.761719 617.398438 631.832031 C 613.457031 625.902344 608.765625 621.527344 603.320312 618.710938 C 597.878906 615.894531 591.554688 614.148438 584.34375 613.46875 L 584.34375 659.199219 C 585.847656 658.746094 587.425781 657.542969 589.070312 655.589844 C 590.722656 653.636719 592.265625 651.238281 593.6875 648.382812 C 595.117188 645.53125 596.375 642.46875 597.464844 639.207031 C 598.554688 635.9375 599.289062 632.726562 599.664062 629.574219 L 600.792969 629.574219 L 600.792969 690.957031 L 599.664062 690.957031 C 599.289062 687.800781 598.554688 684.589844 597.464844 681.328125 C 596.375 678.0625 595.117188 675.003906 593.6875 672.152344 C 592.265625 669.296875 590.722656 666.894531 589.070312 664.941406 C 587.425781 662.992188 585.847656 661.789062 584.34375 661.335938 L 584.34375 717.421875 C 591.703125 716.371094 598.367188 713.707031 604.335938 709.429688 C 610.304688 705.148438 615.277344 699.308594 619.257812 691.917969 C 623.238281 684.523438 625.90625 675.714844 627.257812 665.503906 L 628.382812 665.503906 L 628.382812 721.816406 Z M 543.800781 721.816406 " fill-opacity="1" fill-rule="nonzero"/><path fill="#ff802c" d="M 349.148438 252.027344 C 335.839844 279.910156 366.890625 301.457031 387.800781 279.277344 C 397.941406 268.503906 396.039062 232.382812 375.128906 233.019531 C 363.089844 234.285156 354.214844 241.890625 349.148438 252.027344 Z M 349.148438 252.027344 " fill-opacity="1" fill-rule="nonzero"/><path fill="#f1ecd9" d="M 648.246094 253.929688 C 641.910156 233.019531 527.210938 250.128906 503.765625 253.929688 C 481.589844 257.097656 407.445312 244.425781 406.179688 260.265625 C 406.179688 264.066406 404.910156 271.671875 402.375 278.011719 C 399.207031 285.613281 394.773438 291.949219 395.40625 294.484375 C 406.179688 324.269531 497.429688 326.171875 522.777344 341.378906 C 551.925781 358.488281 531.648438 442.132812 560.164062 455.441406 C 574.738281 462.410156 633.039062 485.859375 646.976562 471.917969 C 667.257812 452.273438 648.246094 376.863281 646.976562 351.519531 C 647.613281 325.535156 657.117188 282.445312 648.246094 253.929688 Z M 648.246094 253.929688 " fill-opacity="1" fill-rule="nonzero"/><path fill="#f1ecd9" d="M 298.453125 219.710938 C 266.769531 217.808594 247.125 218.445312 221.777344 216.542969 C 187.558594 214.007812 144.464844 201.335938 112.78125 219.710938 C 105.8125 223.511719 108.347656 241.257812 108.347656 247.59375 C 107.714844 271.671875 108.980469 295.753906 107.078125 319.832031 C 105.8125 335.675781 102.644531 351.519531 102.011719 367.359375 C 100.742188 383.835938 102.011719 445.300781 117.21875 459.242188 C 126.722656 467.480469 179.320312 446.570312 183.757812 440.867188 C 197.695312 423.125 187.558594 352.785156 202.765625 324.269531 C 204.667969 320.464844 207.203125 315.398438 210.371094 313.496094 C 233.183594 301.457031 278.808594 299.554688 307.324219 291.949219 C 313.660156 290.050781 332.039062 290.050781 335.839844 283.710938 C 338.375 279.910156 332.039062 265.96875 337.109375 250.761719 C 344.710938 227.949219 307.324219 220.34375 298.453125 219.710938 Z M 298.453125 219.710938 " fill-opacity="1" fill-rule="nonzero"/><path fill="#f1ecd9" d="M 344.710938 303.359375 C 340.277344 291.949219 333.304688 298.921875 325.066406 302.089844 C 299.71875 311.597656 270.570312 310.960938 245.855469 321.101562 C 219.875 331.871094 217.339844 355.320312 211.636719 378.765625 C 208.46875 392.074219 206.566406 405.378906 204.667969 418.6875 C 200.863281 444.667969 202.132812 458.609375 233.816406 463.046875 C 247.757812 464.945312 282.609375 477.621094 290.214844 460.511719 C 296.550781 446.570312 297.183594 400.945312 297.183594 383.835938 C 297.183594 375.597656 295.285156 367.359375 299.085938 359.121094 C 306.054688 343.28125 347.878906 318.566406 344.710938 303.359375 Z M 344.710938 303.359375 " fill-opacity="1" fill-rule="nonzero"/><path fill="#f1ecd9" d="M 362.453125 470.648438 C 366.890625 470.648438 392.871094 465.578125 395.40625 461.777344 C 404.277344 449.738281 397.308594 418.054688 396.039062 404.746094 C 394.773438 383.835938 385.269531 350.882812 375.761719 319.199219 C 374.492188 315.398438 373.226562 305.257812 370.058594 302.089844 C 364.988281 297.019531 358.019531 300.1875 356.117188 304.625 C 352.949219 311.597656 350.414062 318.566406 345.976562 324.902344 C 335.207031 339.476562 316.828125 350.882812 316.195312 368.625 C 315.5625 383.203125 311.761719 397.777344 311.761719 412.351562 C 314.929688 465.578125 304.789062 469.382812 362.453125 470.648438 Z M 362.453125 470.648438 " fill-opacity="1" fill-rule="nonzero"/><path fill="#f1ecd9" d="M 397.308594 306.527344 C 388.4375 302.089844 383.367188 300.820312 380.832031 309.695312 C 381.464844 317.296875 389.703125 327.4375 392.238281 334.40625 C 395.40625 343.914062 397.941406 354.050781 401.109375 363.558594 C 419.484375 424.390625 404.910156 445.9375 475.25 464.945312 C 489.824219 468.746094 503.765625 468.117188 516.441406 459.242188 C 524.679688 453.539062 524.679688 434.53125 524.679688 425.65625 C 525.3125 345.8125 489.191406 357.21875 432.792969 329.972656 C 420.121094 324.269531 409.347656 312.863281 397.308594 306.527344 Z M 397.308594 306.527344 " fill-opacity="1" fill-rule="nonzero"/><path fill="#f1ecd9" d="M 595.648438 99.308594 C 579.175781 105.648438 404.277344 213.375 404.277344 213.375 C 404.277344 213.375 392.871094 219.078125 397.941406 230.484375 C 403.011719 241.890625 399.207031 241.890625 409.980469 241.257812 C 420.753906 240.621094 482.855469 239.988281 508.203125 236.1875 C 532.914062 232.382812 635.570312 233.019531 641.277344 221.613281 C 646.976562 210.207031 646.347656 111.351562 637.472656 103.113281 C 627.96875 95.507812 612.125 92.972656 595.648438 99.308594 Z M 595.648438 99.308594 " fill-opacity="1" fill-rule="nonzero"/><path fill="#f1ecd9" d="M 561.433594 45.449219 C 553.195312 47.347656 435.960938 41.644531 428.992188 47.980469 C 422.019531 54.320312 414.414062 65.09375 413.148438 73.964844 C 411.246094 83.46875 384.632812 190.5625 379.5625 200.066406 C 375.128906 209.570312 371.324219 217.175781 371.960938 223.511719 C 371.960938 223.511719 385.898438 228.582031 387.167969 222.878906 C 389.070312 217.175781 389.703125 215.90625 392.871094 212.105469 C 396.039062 208.304688 625.433594 70.160156 629.871094 56.21875 C 634.9375 42.28125 576.007812 42.28125 561.433594 45.449219 Z M 561.433594 45.449219 " fill-opacity="1" fill-rule="nonzero"/><path fill="#f1ecd9" d="M 297.183594 42.910156 C 286.410156 47.347656 273.738281 52.417969 275.007812 63.824219 C 275.640625 75.863281 325.066406 159.511719 337.738281 181.691406 C 350.414062 203.867188 348.515625 220.34375 351.046875 227.316406 C 351.046875 227.316406 353.582031 232.382812 358.019531 229.851562 C 362.453125 227.316406 365.621094 229.851562 364.988281 224.144531 C 364.988281 218.445312 376.394531 172.816406 380.199219 162.046875 C 383.367188 150.640625 397.941406 52.417969 390.96875 47.980469 C 383.367188 42.910156 307.957031 38.476562 297.183594 42.910156 Z M 297.183594 42.910156 " fill-opacity="1" fill-rule="nonzero"/><path fill="#f1ecd9" d="M 242.054688 52.417969 C 226.847656 46.082031 157.773438 44.8125 149.535156 45.449219 C 141.296875 46.082031 115.316406 49.882812 112.148438 54.953125 C 108.980469 60.65625 110.246094 175.984375 117.851562 188.660156 C 125.457031 201.96875 182.488281 198.164062 205.300781 199.433594 C 228.113281 200.699219 323.164062 216.542969 328.871094 220.976562 C 333.9375 225.414062 341.542969 234.285156 341.542969 234.285156 C 341.542969 234.285156 345.976562 234.285156 346.613281 230.484375 C 347.246094 226.683594 340.910156 214.640625 335.839844 203.234375 C 330.136719 192.460938 283.878906 105.015625 276.90625 91.070312 C 269.9375 77.132812 257.261719 58.757812 242.054688 52.417969 Z M 242.054688 52.417969 " fill-opacity="1" fill-rule="nonzero"/></svg>